/* XPM */
static char *wall2[] = {
/* columns rows colors chars-per-pixel */
"16 16 151 2 ",
"   c #B2B0AD",
".  c #B4B1AC",
"X  c #B5B3AE",
"o  c #B6B4AF",
"O  c #B4B3B0",
"+  c #B5B3B0",
"@  c #B6B4B0",
"#  c #B7B5B1",
"$  c #B6B5B2",
"%  c #B7B6B2",
"&  c #B7B6B3",
"*  c #B7B7B5",
"=  c #B8B5B0",
"-  c #B8B6B1",
";  c #B8B6B2",
":  c #B9B7B2",
">  c #B9B7B3",
",  c #BAB8B3",
"<  c #B9B8B5",
"1  c #BAB8B4",
"2  c #BBB8B4",
"3  c #BBB9B4",
"4  c #B9B8B6",
"5  c #B9B9B6",
"6  c #B9B9B7",
"7  c #BAB9B6",
"8  c #BBBAB6",
"9  c #BABAB7",
"0  c #BBBAB7",
"q  c #BCBAB6",
"w  c #BDBBB6",
"e  c #BCBBB7",
"r  c #BDBBB7",
"t  c #BEBBB6",
"y  c #BEBBB7",
"u  c #BEBCB7",
"i  c #BFBCB7",
"p  c #BBBAB8",
"a  c #BBBBB8",
"s  c #BBBBBA",
"d  c #BCBBB8",
"f  c #BDBBB8",
"g  c #BDBCB8",
"h  c #BDBCB9",
"j  c #BEBCB8",
"k  c #BFBDB8",
"l  c #BEBDB9",
"z  c #BCBCBA",
"x  c #BDBDBA",
"c  c #BEBDBA",
"v  c #BFBDBA",
"b  c #BFBEBA",
"n  c #BEBEBB",
"m  c #BFBEBB",
"M  c #BFBFBC",
"N  c #C0BDB8",
"B  c #C0BEB9",
"V  c #C0BEBA",
"C  c #C0BEBB",
"Z  c #C0BFBB",
"A  c #C1BFBB",
"S  c #C0BFBC",
"D  c #C0BFBD",
"F  c #C2C0BB",
"G  c #C0C0BC",
"H  c #C1C0BC",
"J  c #C1C0BD",
"K  c #C2C0BC",
"L  c #C3C1BC",
"P  c #C2C0BD",
"I  c #C2C1BD",
"U  c #C0C0BE",
"Y  c #C1C0BE",
"T  c #C1C1BE",
"R  c #C1C1BF",
"E  c #C2C1BE",
"W  c #C3C1BE",
"Q  c #C2C1BF",
"!  c #C3C2BE",
"~  c #C2C2BF",
"^  c #C3C2BF",
"/  c #C3C3BF",
"(  c #C4C2BE",
")  c #C4C3BE",
"_  c #C4C2BF",
"`  c #C6C4BF",
"'  c #C7C5BF",
"]  c #C3C3C0",
"[  c #C3C3C1",
"{  c #C4C3C0",
"}  c #C5C4C0",
"|  c #C5C4C1",
" . c #C5C5C1",
".. c #C6C4C0",
"X. c #C6C5C1",
"o. c #C4C4C2",
"O. c #C5C5C2",
"+. c #C4C5C3",
"@. c #C5C5C3",
"#. c #C6C5C2",
"$. c #C7C5C2",
"%. c #C7C6C3",
"&. c #C5C5C4",
"*. c #C6C6C4",
"=. c #C7C7C4",
"-. c #C6C6C5",
";. c #C7C7C5",
":. c #C8C6C1",
">. c #C9C7C1",
",. c #C8C7C2",
"<. c #C8C7C3",
"1. c #C8C7C4",
"2. c #C8C7C5",
"3. c #C9C8C4",
"4. c #C9C8C5",
"5. c #CAC9C4",
"6. c #CAC9C5",
"7. c #CBC9C5",
"8. c #C8C8C6",
"9. c #C9C9C6",
"0. c #C9C9C7",
"q. c #CAC9C6",
"w. c #CAC9C7",
"e. c #CACAC7",
"r. c #CBCAC7",
"t. c #CBCBC7",
"y. c #C9C9C8",
"u. c #CACAC8",
"i. c #CBCAC8",
"p. c #CACBC9",
"a. c #CCCBC8",
"s. c #CCCBC9",
"d. c #CDCCC8",
"f. c #CCCCC9",
"g. c #CDCCC9",
"h. c #CECDC9",
"j. c #CDCCCA",
"k. c #CCCCCB",
"l. c #CCCDCB",
"z. c #CDCDCB",
"x. c #CECDCA",
"c. c #CFCECA",
"v. c #CECECB",
"b. c #CFCECB",
"n. c #CDCDCC",
"m. c #CDCECC",
"M. c #CECECC",
"N. c #D0D0CD",
"B. c #D2D1CE",
"V. c #D2D2CF",
"C. c #D6D6D4",
/* pixels */
"( ,.' S t t C t $.5.5.&.y.b.j.( ",
"$.5.,.! L ( ! G 5.5.j.j.5.B.j.! ",
"5 5 u k C C k C ! 1.5.1.! ! ( k ",
"S ! k 5 ! y.;.] &.j.n.] k U ! ] ",
"k ! ] k ] y.y.&.y.y.;.U p n p U ",
"k S ! C ! S ! k ! y.5.5.z ! ] ! ",
"j.1.$.5.s.5.1.! y.n.C.B.;.y.n.n.",
"( ! p C ( 1.1.! 5.j.y.y.$.$.y.5.",
"O   * @ p ] ] &.y.5.] d 5 k k n ",
"6 * p p ! &.y.&.n.y.n.$.* 5 p U ",
"p 5 O * ] ! ] ! k ! ] C @ - +   ",
";.$.+.+.n.n.y.n.k n ! k ! t - - ",
"y.&.&.&.$.y.n.5.5 k k t t @ - X ",
"&.$.$.n 5 5 p p 5 - t 5 t t d k ",
"B.n.B.5.d 5 p d ( ' $.U ! ] $.j.",
"j.j.j.5.< p p 5 ! ! ! k k ! $.$."
};
